<mxfile host="app.diagrams.net" modified="2023-07-22T10:24:05.382Z" agent="Mozilla/5.0 (Windows NT 10.0; Win64; x64) AppleWebKit/537.36 (KHTML, like Gecko) Chrome/115.0.0.0 Safari/537.36" etag="HGaAr2uZqrEpPDU9-N60" version="21.6.5" type="google">
  <diagram name="Page-1" id="UymX9K927OmU8Y_JAJOw">
    <mxGraphModel grid="1" page="1" gridSize="10" guides="1" tooltips="1" connect="1" arrows="1" fold="1" pageScale="1" pageWidth="850" pageHeight="1100" math="0" shadow="0">
      <root>
        <mxCell id="0" />
        <mxCell id="1" parent="0" />
        <mxCell id="LnkvAa4Gzitod-4Qt2fE-8" value="" style="shape=umlLifeline;perimeter=lifelinePerimeter;whiteSpace=wrap;html=1;container=1;dropTarget=0;collapsible=0;recursiveResize=0;outlineConnect=0;portConstraint=eastwest;newEdgeStyle={&quot;edgeStyle&quot;:&quot;elbowEdgeStyle&quot;,&quot;elbow&quot;:&quot;vertical&quot;,&quot;curved&quot;:0,&quot;rounded&quot;:0};participant=umlActor;" vertex="1" parent="1">
          <mxGeometry x="210" y="80" width="20" height="290" as="geometry" />
        </mxCell>
        <mxCell id="LnkvAa4Gzitod-4Qt2fE-16" value="" style="html=1;points=[];perimeter=orthogonalPerimeter;outlineConnect=0;targetShapes=umlLifeline;portConstraint=eastwest;newEdgeStyle={&quot;edgeStyle&quot;:&quot;elbowEdgeStyle&quot;,&quot;elbow&quot;:&quot;vertical&quot;,&quot;curved&quot;:0,&quot;rounded&quot;:0};" vertex="1" parent="LnkvAa4Gzitod-4Qt2fE-8">
          <mxGeometry x="5" y="90" width="10" height="160" as="geometry" />
        </mxCell>
        <mxCell id="LnkvAa4Gzitod-4Qt2fE-13" value="Create Saving Account" style="shape=umlLifeline;perimeter=lifelinePerimeter;whiteSpace=wrap;html=1;container=1;dropTarget=0;collapsible=0;recursiveResize=0;outlineConnect=0;portConstraint=eastwest;newEdgeStyle={&quot;edgeStyle&quot;:&quot;elbowEdgeStyle&quot;,&quot;elbow&quot;:&quot;vertical&quot;,&quot;curved&quot;:0,&quot;rounded&quot;:0};" vertex="1" parent="1">
          <mxGeometry x="360" y="80" width="100" height="300" as="geometry" />
        </mxCell>
        <mxCell id="LnkvAa4Gzitod-4Qt2fE-23" value="" style="html=1;points=[];perimeter=orthogonalPerimeter;outlineConnect=0;targetShapes=umlLifeline;portConstraint=eastwest;newEdgeStyle={&quot;edgeStyle&quot;:&quot;elbowEdgeStyle&quot;,&quot;elbow&quot;:&quot;vertical&quot;,&quot;curved&quot;:0,&quot;rounded&quot;:0};" vertex="1" parent="LnkvAa4Gzitod-4Qt2fE-13">
          <mxGeometry x="45" y="90" width="10" height="160" as="geometry" />
        </mxCell>
        <mxCell id="LnkvAa4Gzitod-4Qt2fE-14" value="Validate" style="shape=umlLifeline;perimeter=lifelinePerimeter;whiteSpace=wrap;html=1;container=1;dropTarget=0;collapsible=0;recursiveResize=0;outlineConnect=0;portConstraint=eastwest;newEdgeStyle={&quot;edgeStyle&quot;:&quot;elbowEdgeStyle&quot;,&quot;elbow&quot;:&quot;vertical&quot;,&quot;curved&quot;:0,&quot;rounded&quot;:0};" vertex="1" parent="1">
          <mxGeometry x="520" y="80" width="100" height="300" as="geometry" />
        </mxCell>
        <mxCell id="LnkvAa4Gzitod-4Qt2fE-24" value="" style="html=1;points=[];perimeter=orthogonalPerimeter;outlineConnect=0;targetShapes=umlLifeline;portConstraint=eastwest;newEdgeStyle={&quot;edgeStyle&quot;:&quot;elbowEdgeStyle&quot;,&quot;elbow&quot;:&quot;vertical&quot;,&quot;curved&quot;:0,&quot;rounded&quot;:0};" vertex="1" parent="LnkvAa4Gzitod-4Qt2fE-14">
          <mxGeometry x="45" y="90" width="10" height="160" as="geometry" />
        </mxCell>
        <mxCell id="LnkvAa4Gzitod-4Qt2fE-15" value="DataBase" style="shape=umlLifeline;perimeter=lifelinePerimeter;whiteSpace=wrap;html=1;container=1;dropTarget=0;collapsible=0;recursiveResize=0;outlineConnect=0;portConstraint=eastwest;newEdgeStyle={&quot;edgeStyle&quot;:&quot;elbowEdgeStyle&quot;,&quot;elbow&quot;:&quot;vertical&quot;,&quot;curved&quot;:0,&quot;rounded&quot;:0};" vertex="1" parent="1">
          <mxGeometry x="700" y="80" width="100" height="300" as="geometry" />
        </mxCell>
        <mxCell id="LnkvAa4Gzitod-4Qt2fE-25" value="" style="html=1;points=[];perimeter=orthogonalPerimeter;outlineConnect=0;targetShapes=umlLifeline;portConstraint=eastwest;newEdgeStyle={&quot;edgeStyle&quot;:&quot;elbowEdgeStyle&quot;,&quot;elbow&quot;:&quot;vertical&quot;,&quot;curved&quot;:0,&quot;rounded&quot;:0};" vertex="1" parent="LnkvAa4Gzitod-4Qt2fE-15">
          <mxGeometry x="45" y="90" width="10" height="160" as="geometry" />
        </mxCell>
        <mxCell id="YXFIWgO_1D10-z2LLMyA-4" value="Reject Validate" style="html=1;verticalAlign=bottom;endArrow=open;dashed=1;endSize=8;edgeStyle=elbowEdgeStyle;elbow=vertical;curved=0;rounded=0;" edge="1" parent="1">
          <mxGeometry relative="1" as="geometry">
            <mxPoint x="569.5" y="260" as="sourcePoint" />
            <mxPoint x="230" y="260" as="targetPoint" />
          </mxGeometry>
        </mxCell>
        <mxCell id="YXFIWgO_1D10-z2LLMyA-5" value="Result" style="html=1;verticalAlign=bottom;endArrow=open;dashed=1;endSize=8;edgeStyle=elbowEdgeStyle;elbow=vertical;curved=0;rounded=0;" edge="1" parent="1" source="LnkvAa4Gzitod-4Qt2fE-15">
          <mxGeometry relative="1" as="geometry">
            <mxPoint x="569.5" y="300" as="sourcePoint" />
            <mxPoint x="230" y="300" as="targetPoint" />
          </mxGeometry>
        </mxCell>
        <mxCell id="YXFIWgO_1D10-z2LLMyA-6" value="Send Request" style="html=1;verticalAlign=bottom;endArrow=block;edgeStyle=elbowEdgeStyle;elbow=vertical;curved=0;rounded=0;" edge="1" parent="1" target="LnkvAa4Gzitod-4Qt2fE-13">
          <mxGeometry width="80" relative="1" as="geometry">
            <mxPoint x="230" y="200" as="sourcePoint" />
            <mxPoint x="340.5" y="200" as="targetPoint" />
          </mxGeometry>
        </mxCell>
        <mxCell id="YXFIWgO_1D10-z2LLMyA-7" value="Validate request" style="html=1;verticalAlign=bottom;endArrow=block;edgeStyle=elbowEdgeStyle;elbow=vertical;curved=0;rounded=0;" edge="1" parent="1" target="LnkvAa4Gzitod-4Qt2fE-24">
          <mxGeometry x="0.1065" y="5" width="80" relative="1" as="geometry">
            <mxPoint x="420" y="224.5" as="sourcePoint" />
            <mxPoint x="600" y="224.5" as="targetPoint" />
            <mxPoint x="1" as="offset" />
          </mxGeometry>
        </mxCell>
        <mxCell id="YXFIWgO_1D10-z2LLMyA-8" value="Is Valid?" style="html=1;verticalAlign=bottom;endArrow=block;edgeStyle=elbowEdgeStyle;elbow=vertical;curved=0;rounded=0;" edge="1" parent="1">
          <mxGeometry width="80" relative="1" as="geometry">
            <mxPoint x="580" y="200" as="sourcePoint" />
            <mxPoint x="740" y="200" as="targetPoint" />
          </mxGeometry>
        </mxCell>
        <mxCell id="YXFIWgO_1D10-z2LLMyA-22" value="" style="shape=umlLifeline;perimeter=lifelinePerimeter;whiteSpace=wrap;html=1;container=1;dropTarget=0;collapsible=0;recursiveResize=0;outlineConnect=0;portConstraint=eastwest;newEdgeStyle={&quot;edgeStyle&quot;:&quot;elbowEdgeStyle&quot;,&quot;elbow&quot;:&quot;vertical&quot;,&quot;curved&quot;:0,&quot;rounded&quot;:0};participant=umlActor;" vertex="1" parent="1">
          <mxGeometry x="220" y="600" width="20" height="290" as="geometry" />
        </mxCell>
        <mxCell id="YXFIWgO_1D10-z2LLMyA-23" value="" style="html=1;points=[];perimeter=orthogonalPerimeter;outlineConnect=0;targetShapes=umlLifeline;portConstraint=eastwest;newEdgeStyle={&quot;edgeStyle&quot;:&quot;elbowEdgeStyle&quot;,&quot;elbow&quot;:&quot;vertical&quot;,&quot;curved&quot;:0,&quot;rounded&quot;:0};" vertex="1" parent="YXFIWgO_1D10-z2LLMyA-22">
          <mxGeometry x="5" y="90" width="10" height="160" as="geometry" />
        </mxCell>
        <mxCell id="YXFIWgO_1D10-z2LLMyA-24" value="Check Balance" style="shape=umlLifeline;perimeter=lifelinePerimeter;whiteSpace=wrap;html=1;container=1;dropTarget=0;collapsible=0;recursiveResize=0;outlineConnect=0;portConstraint=eastwest;newEdgeStyle={&quot;edgeStyle&quot;:&quot;elbowEdgeStyle&quot;,&quot;elbow&quot;:&quot;vertical&quot;,&quot;curved&quot;:0,&quot;rounded&quot;:0};" vertex="1" parent="1">
          <mxGeometry x="370" y="600" width="100" height="300" as="geometry" />
        </mxCell>
        <mxCell id="YXFIWgO_1D10-z2LLMyA-25" value="" style="html=1;points=[];perimeter=orthogonalPerimeter;outlineConnect=0;targetShapes=umlLifeline;portConstraint=eastwest;newEdgeStyle={&quot;edgeStyle&quot;:&quot;elbowEdgeStyle&quot;,&quot;elbow&quot;:&quot;vertical&quot;,&quot;curved&quot;:0,&quot;rounded&quot;:0};" vertex="1" parent="YXFIWgO_1D10-z2LLMyA-24">
          <mxGeometry x="45" y="90" width="10" height="160" as="geometry" />
        </mxCell>
        <mxCell id="YXFIWgO_1D10-z2LLMyA-26" value="Balance Statement" style="shape=umlLifeline;perimeter=lifelinePerimeter;whiteSpace=wrap;html=1;container=1;dropTarget=0;collapsible=0;recursiveResize=0;outlineConnect=0;portConstraint=eastwest;newEdgeStyle={&quot;edgeStyle&quot;:&quot;elbowEdgeStyle&quot;,&quot;elbow&quot;:&quot;vertical&quot;,&quot;curved&quot;:0,&quot;rounded&quot;:0};" vertex="1" parent="1">
          <mxGeometry x="530" y="600" width="100" height="300" as="geometry" />
        </mxCell>
        <mxCell id="YXFIWgO_1D10-z2LLMyA-27" value="" style="html=1;points=[];perimeter=orthogonalPerimeter;outlineConnect=0;targetShapes=umlLifeline;portConstraint=eastwest;newEdgeStyle={&quot;edgeStyle&quot;:&quot;elbowEdgeStyle&quot;,&quot;elbow&quot;:&quot;vertical&quot;,&quot;curved&quot;:0,&quot;rounded&quot;:0};" vertex="1" parent="YXFIWgO_1D10-z2LLMyA-26">
          <mxGeometry x="45" y="90" width="10" height="160" as="geometry" />
        </mxCell>
        <mxCell id="YXFIWgO_1D10-z2LLMyA-28" value="DataBase" style="shape=umlLifeline;perimeter=lifelinePerimeter;whiteSpace=wrap;html=1;container=1;dropTarget=0;collapsible=0;recursiveResize=0;outlineConnect=0;portConstraint=eastwest;newEdgeStyle={&quot;edgeStyle&quot;:&quot;elbowEdgeStyle&quot;,&quot;elbow&quot;:&quot;vertical&quot;,&quot;curved&quot;:0,&quot;rounded&quot;:0};" vertex="1" parent="1">
          <mxGeometry x="710" y="600" width="100" height="300" as="geometry" />
        </mxCell>
        <mxCell id="YXFIWgO_1D10-z2LLMyA-29" value="" style="html=1;points=[];perimeter=orthogonalPerimeter;outlineConnect=0;targetShapes=umlLifeline;portConstraint=eastwest;newEdgeStyle={&quot;edgeStyle&quot;:&quot;elbowEdgeStyle&quot;,&quot;elbow&quot;:&quot;vertical&quot;,&quot;curved&quot;:0,&quot;rounded&quot;:0};" vertex="1" parent="YXFIWgO_1D10-z2LLMyA-28">
          <mxGeometry x="45" y="90" width="10" height="160" as="geometry" />
        </mxCell>
        <mxCell id="YXFIWgO_1D10-z2LLMyA-31" value="Result" style="html=1;verticalAlign=bottom;endArrow=open;dashed=1;endSize=8;edgeStyle=elbowEdgeStyle;elbow=vertical;curved=0;rounded=0;" edge="1" parent="1" source="YXFIWgO_1D10-z2LLMyA-28">
          <mxGeometry relative="1" as="geometry">
            <mxPoint x="579.5" y="820" as="sourcePoint" />
            <mxPoint x="240" y="820" as="targetPoint" />
          </mxGeometry>
        </mxCell>
        <mxCell id="YXFIWgO_1D10-z2LLMyA-32" value="Send Request" style="html=1;verticalAlign=bottom;endArrow=block;edgeStyle=elbowEdgeStyle;elbow=vertical;curved=0;rounded=0;" edge="1" parent="1" target="YXFIWgO_1D10-z2LLMyA-24">
          <mxGeometry width="80" relative="1" as="geometry">
            <mxPoint x="240" y="720" as="sourcePoint" />
            <mxPoint x="350.5" y="720" as="targetPoint" />
          </mxGeometry>
        </mxCell>
        <mxCell id="YXFIWgO_1D10-z2LLMyA-33" value="Current Balance Request" style="html=1;verticalAlign=bottom;endArrow=block;edgeStyle=elbowEdgeStyle;elbow=vertical;curved=0;rounded=0;" edge="1" parent="1" target="YXFIWgO_1D10-z2LLMyA-27">
          <mxGeometry x="0.1065" y="5" width="80" relative="1" as="geometry">
            <mxPoint x="430" y="744.5" as="sourcePoint" />
            <mxPoint x="610" y="744.5" as="targetPoint" />
            <mxPoint x="1" as="offset" />
          </mxGeometry>
        </mxCell>
        <mxCell id="YXFIWgO_1D10-z2LLMyA-34" value="Request Balance" style="html=1;verticalAlign=bottom;endArrow=block;edgeStyle=elbowEdgeStyle;elbow=vertical;curved=0;rounded=0;exitX=0.5;exitY=0.188;exitDx=0;exitDy=0;exitPerimeter=0;" edge="1" parent="1" source="YXFIWgO_1D10-z2LLMyA-27">
          <mxGeometry width="80" relative="1" as="geometry">
            <mxPoint x="590" y="720" as="sourcePoint" />
            <mxPoint x="750" y="720" as="targetPoint" />
          </mxGeometry>
        </mxCell>
        <mxCell id="YXFIWgO_1D10-z2LLMyA-113" value="" style="shape=umlLifeline;perimeter=lifelinePerimeter;whiteSpace=wrap;html=1;container=1;dropTarget=0;collapsible=0;recursiveResize=0;outlineConnect=0;portConstraint=eastwest;newEdgeStyle={&quot;edgeStyle&quot;:&quot;elbowEdgeStyle&quot;,&quot;elbow&quot;:&quot;vertical&quot;,&quot;curved&quot;:0,&quot;rounded&quot;:0};participant=umlActor;" vertex="1" parent="1">
          <mxGeometry x="220" y="1065" width="20" height="290" as="geometry" />
        </mxCell>
        <mxCell id="YXFIWgO_1D10-z2LLMyA-114" value="" style="html=1;points=[];perimeter=orthogonalPerimeter;outlineConnect=0;targetShapes=umlLifeline;portConstraint=eastwest;newEdgeStyle={&quot;edgeStyle&quot;:&quot;elbowEdgeStyle&quot;,&quot;elbow&quot;:&quot;vertical&quot;,&quot;curved&quot;:0,&quot;rounded&quot;:0};" vertex="1" parent="YXFIWgO_1D10-z2LLMyA-113">
          <mxGeometry x="5" y="90" width="10" height="160" as="geometry" />
        </mxCell>
        <mxCell id="YXFIWgO_1D10-z2LLMyA-115" value="Deposit Money" style="shape=umlLifeline;perimeter=lifelinePerimeter;whiteSpace=wrap;html=1;container=1;dropTarget=0;collapsible=0;recursiveResize=0;outlineConnect=0;portConstraint=eastwest;newEdgeStyle={&quot;edgeStyle&quot;:&quot;elbowEdgeStyle&quot;,&quot;elbow&quot;:&quot;vertical&quot;,&quot;curved&quot;:0,&quot;rounded&quot;:0};" vertex="1" parent="1">
          <mxGeometry x="370" y="1065" width="100" height="300" as="geometry" />
        </mxCell>
        <mxCell id="YXFIWgO_1D10-z2LLMyA-116" value="" style="html=1;points=[];perimeter=orthogonalPerimeter;outlineConnect=0;targetShapes=umlLifeline;portConstraint=eastwest;newEdgeStyle={&quot;edgeStyle&quot;:&quot;elbowEdgeStyle&quot;,&quot;elbow&quot;:&quot;vertical&quot;,&quot;curved&quot;:0,&quot;rounded&quot;:0};" vertex="1" parent="YXFIWgO_1D10-z2LLMyA-115">
          <mxGeometry x="45" y="90" width="10" height="160" as="geometry" />
        </mxCell>
        <mxCell id="YXFIWgO_1D10-z2LLMyA-117" value="Accept" style="shape=umlLifeline;perimeter=lifelinePerimeter;whiteSpace=wrap;html=1;container=1;dropTarget=0;collapsible=0;recursiveResize=0;outlineConnect=0;portConstraint=eastwest;newEdgeStyle={&quot;edgeStyle&quot;:&quot;elbowEdgeStyle&quot;,&quot;elbow&quot;:&quot;vertical&quot;,&quot;curved&quot;:0,&quot;rounded&quot;:0};" vertex="1" parent="1">
          <mxGeometry x="530" y="1065" width="100" height="300" as="geometry" />
        </mxCell>
        <mxCell id="YXFIWgO_1D10-z2LLMyA-118" value="" style="html=1;points=[];perimeter=orthogonalPerimeter;outlineConnect=0;targetShapes=umlLifeline;portConstraint=eastwest;newEdgeStyle={&quot;edgeStyle&quot;:&quot;elbowEdgeStyle&quot;,&quot;elbow&quot;:&quot;vertical&quot;,&quot;curved&quot;:0,&quot;rounded&quot;:0};" vertex="1" parent="YXFIWgO_1D10-z2LLMyA-117">
          <mxGeometry x="45" y="90" width="10" height="160" as="geometry" />
        </mxCell>
        <mxCell id="YXFIWgO_1D10-z2LLMyA-119" value="DataBase" style="shape=umlLifeline;perimeter=lifelinePerimeter;whiteSpace=wrap;html=1;container=1;dropTarget=0;collapsible=0;recursiveResize=0;outlineConnect=0;portConstraint=eastwest;newEdgeStyle={&quot;edgeStyle&quot;:&quot;elbowEdgeStyle&quot;,&quot;elbow&quot;:&quot;vertical&quot;,&quot;curved&quot;:0,&quot;rounded&quot;:0};" vertex="1" parent="1">
          <mxGeometry x="710" y="1065" width="100" height="300" as="geometry" />
        </mxCell>
        <mxCell id="YXFIWgO_1D10-z2LLMyA-120" value="" style="html=1;points=[];perimeter=orthogonalPerimeter;outlineConnect=0;targetShapes=umlLifeline;portConstraint=eastwest;newEdgeStyle={&quot;edgeStyle&quot;:&quot;elbowEdgeStyle&quot;,&quot;elbow&quot;:&quot;vertical&quot;,&quot;curved&quot;:0,&quot;rounded&quot;:0};" vertex="1" parent="YXFIWgO_1D10-z2LLMyA-119">
          <mxGeometry x="45" y="90" width="10" height="160" as="geometry" />
        </mxCell>
        <mxCell id="YXFIWgO_1D10-z2LLMyA-121" value="Reject Accept" style="html=1;verticalAlign=bottom;endArrow=open;dashed=1;endSize=8;edgeStyle=elbowEdgeStyle;elbow=vertical;curved=0;rounded=0;" edge="1" parent="1">
          <mxGeometry relative="1" as="geometry">
            <mxPoint x="579.5" y="1245" as="sourcePoint" />
            <mxPoint x="240" y="1245" as="targetPoint" />
          </mxGeometry>
        </mxCell>
        <mxCell id="YXFIWgO_1D10-z2LLMyA-122" value="Result" style="html=1;verticalAlign=bottom;endArrow=open;dashed=1;endSize=8;edgeStyle=elbowEdgeStyle;elbow=vertical;curved=0;rounded=0;" edge="1" parent="1" source="YXFIWgO_1D10-z2LLMyA-119">
          <mxGeometry relative="1" as="geometry">
            <mxPoint x="579.5" y="1285" as="sourcePoint" />
            <mxPoint x="240" y="1285" as="targetPoint" />
          </mxGeometry>
        </mxCell>
        <mxCell id="YXFIWgO_1D10-z2LLMyA-123" value="Send Request" style="html=1;verticalAlign=bottom;endArrow=block;edgeStyle=elbowEdgeStyle;elbow=vertical;curved=0;rounded=0;" edge="1" parent="1" target="YXFIWgO_1D10-z2LLMyA-115">
          <mxGeometry width="80" relative="1" as="geometry">
            <mxPoint x="240" y="1185" as="sourcePoint" />
            <mxPoint x="350.5" y="1185" as="targetPoint" />
          </mxGeometry>
        </mxCell>
        <mxCell id="YXFIWgO_1D10-z2LLMyA-124" value="Accept request" style="html=1;verticalAlign=bottom;endArrow=block;edgeStyle=elbowEdgeStyle;elbow=vertical;curved=0;rounded=0;" edge="1" parent="1" target="YXFIWgO_1D10-z2LLMyA-118">
          <mxGeometry x="0.1065" y="5" width="80" relative="1" as="geometry">
            <mxPoint x="430" y="1209.5" as="sourcePoint" />
            <mxPoint x="610" y="1209.5" as="targetPoint" />
            <mxPoint x="1" as="offset" />
          </mxGeometry>
        </mxCell>
        <mxCell id="YXFIWgO_1D10-z2LLMyA-125" value="If Accept, ok" style="html=1;verticalAlign=bottom;endArrow=block;edgeStyle=elbowEdgeStyle;elbow=vertical;curved=0;rounded=0;" edge="1" parent="1">
          <mxGeometry width="80" relative="1" as="geometry">
            <mxPoint x="590" y="1185" as="sourcePoint" />
            <mxPoint x="750" y="1185" as="targetPoint" />
          </mxGeometry>
        </mxCell>
        <mxCell id="YXFIWgO_1D10-z2LLMyA-126" value="" style="shape=umlLifeline;perimeter=lifelinePerimeter;whiteSpace=wrap;html=1;container=1;dropTarget=0;collapsible=0;recursiveResize=0;outlineConnect=0;portConstraint=eastwest;newEdgeStyle={&quot;edgeStyle&quot;:&quot;elbowEdgeStyle&quot;,&quot;elbow&quot;:&quot;vertical&quot;,&quot;curved&quot;:0,&quot;rounded&quot;:0};participant=umlActor;" vertex="1" parent="1">
          <mxGeometry x="220" y="1465" width="20" height="290" as="geometry" />
        </mxCell>
        <mxCell id="YXFIWgO_1D10-z2LLMyA-127" value="" style="html=1;points=[];perimeter=orthogonalPerimeter;outlineConnect=0;targetShapes=umlLifeline;portConstraint=eastwest;newEdgeStyle={&quot;edgeStyle&quot;:&quot;elbowEdgeStyle&quot;,&quot;elbow&quot;:&quot;vertical&quot;,&quot;curved&quot;:0,&quot;rounded&quot;:0};" vertex="1" parent="YXFIWgO_1D10-z2LLMyA-126">
          <mxGeometry x="5" y="90" width="10" height="160" as="geometry" />
        </mxCell>
        <mxCell id="YXFIWgO_1D10-z2LLMyA-128" value="Withdraw Money" style="shape=umlLifeline;perimeter=lifelinePerimeter;whiteSpace=wrap;html=1;container=1;dropTarget=0;collapsible=0;recursiveResize=0;outlineConnect=0;portConstraint=eastwest;newEdgeStyle={&quot;edgeStyle&quot;:&quot;elbowEdgeStyle&quot;,&quot;elbow&quot;:&quot;vertical&quot;,&quot;curved&quot;:0,&quot;rounded&quot;:0};" vertex="1" parent="1">
          <mxGeometry x="370" y="1465" width="100" height="300" as="geometry" />
        </mxCell>
        <mxCell id="YXFIWgO_1D10-z2LLMyA-129" value="" style="html=1;points=[];perimeter=orthogonalPerimeter;outlineConnect=0;targetShapes=umlLifeline;portConstraint=eastwest;newEdgeStyle={&quot;edgeStyle&quot;:&quot;elbowEdgeStyle&quot;,&quot;elbow&quot;:&quot;vertical&quot;,&quot;curved&quot;:0,&quot;rounded&quot;:0};" vertex="1" parent="YXFIWgO_1D10-z2LLMyA-128">
          <mxGeometry x="45" y="90" width="10" height="160" as="geometry" />
        </mxCell>
        <mxCell id="YXFIWgO_1D10-z2LLMyA-130" value="Accept" style="shape=umlLifeline;perimeter=lifelinePerimeter;whiteSpace=wrap;html=1;container=1;dropTarget=0;collapsible=0;recursiveResize=0;outlineConnect=0;portConstraint=eastwest;newEdgeStyle={&quot;edgeStyle&quot;:&quot;elbowEdgeStyle&quot;,&quot;elbow&quot;:&quot;vertical&quot;,&quot;curved&quot;:0,&quot;rounded&quot;:0};" vertex="1" parent="1">
          <mxGeometry x="530" y="1465" width="100" height="300" as="geometry" />
        </mxCell>
        <mxCell id="YXFIWgO_1D10-z2LLMyA-131" value="" style="html=1;points=[];perimeter=orthogonalPerimeter;outlineConnect=0;targetShapes=umlLifeline;portConstraint=eastwest;newEdgeStyle={&quot;edgeStyle&quot;:&quot;elbowEdgeStyle&quot;,&quot;elbow&quot;:&quot;vertical&quot;,&quot;curved&quot;:0,&quot;rounded&quot;:0};" vertex="1" parent="YXFIWgO_1D10-z2LLMyA-130">
          <mxGeometry x="45" y="90" width="10" height="160" as="geometry" />
        </mxCell>
        <mxCell id="YXFIWgO_1D10-z2LLMyA-132" value="DataBase" style="shape=umlLifeline;perimeter=lifelinePerimeter;whiteSpace=wrap;html=1;container=1;dropTarget=0;collapsible=0;recursiveResize=0;outlineConnect=0;portConstraint=eastwest;newEdgeStyle={&quot;edgeStyle&quot;:&quot;elbowEdgeStyle&quot;,&quot;elbow&quot;:&quot;vertical&quot;,&quot;curved&quot;:0,&quot;rounded&quot;:0};" vertex="1" parent="1">
          <mxGeometry x="710" y="1465" width="100" height="300" as="geometry" />
        </mxCell>
        <mxCell id="YXFIWgO_1D10-z2LLMyA-133" value="" style="html=1;points=[];perimeter=orthogonalPerimeter;outlineConnect=0;targetShapes=umlLifeline;portConstraint=eastwest;newEdgeStyle={&quot;edgeStyle&quot;:&quot;elbowEdgeStyle&quot;,&quot;elbow&quot;:&quot;vertical&quot;,&quot;curved&quot;:0,&quot;rounded&quot;:0};" vertex="1" parent="YXFIWgO_1D10-z2LLMyA-132">
          <mxGeometry x="45" y="90" width="10" height="160" as="geometry" />
        </mxCell>
        <mxCell id="YXFIWgO_1D10-z2LLMyA-134" value="Reject Accept" style="html=1;verticalAlign=bottom;endArrow=open;dashed=1;endSize=8;edgeStyle=elbowEdgeStyle;elbow=vertical;curved=0;rounded=0;" edge="1" parent="1">
          <mxGeometry relative="1" as="geometry">
            <mxPoint x="570" y="1645" as="sourcePoint" />
            <mxPoint x="240" y="1645" as="targetPoint" />
          </mxGeometry>
        </mxCell>
        <mxCell id="YXFIWgO_1D10-z2LLMyA-135" value="Result" style="html=1;verticalAlign=bottom;endArrow=open;dashed=1;endSize=8;edgeStyle=elbowEdgeStyle;elbow=vertical;curved=0;rounded=0;" edge="1" parent="1" source="YXFIWgO_1D10-z2LLMyA-132">
          <mxGeometry relative="1" as="geometry">
            <mxPoint x="579.5" y="1685" as="sourcePoint" />
            <mxPoint x="240" y="1685" as="targetPoint" />
          </mxGeometry>
        </mxCell>
        <mxCell id="YXFIWgO_1D10-z2LLMyA-136" value="Send Request" style="html=1;verticalAlign=bottom;endArrow=block;edgeStyle=elbowEdgeStyle;elbow=vertical;curved=0;rounded=0;" edge="1" parent="1">
          <mxGeometry width="80" relative="1" as="geometry">
            <mxPoint x="240" y="1585" as="sourcePoint" />
            <mxPoint x="410" y="1585" as="targetPoint" />
          </mxGeometry>
        </mxCell>
        <mxCell id="YXFIWgO_1D10-z2LLMyA-137" value="Accept request" style="html=1;verticalAlign=bottom;endArrow=block;edgeStyle=elbowEdgeStyle;elbow=vertical;curved=0;rounded=0;" edge="1" parent="1" target="YXFIWgO_1D10-z2LLMyA-131">
          <mxGeometry x="0.1065" y="5" width="80" relative="1" as="geometry">
            <mxPoint x="430" y="1609.5" as="sourcePoint" />
            <mxPoint x="610" y="1609.5" as="targetPoint" />
            <mxPoint x="1" as="offset" />
          </mxGeometry>
        </mxCell>
        <mxCell id="YXFIWgO_1D10-z2LLMyA-138" value="If Accept, ok" style="html=1;verticalAlign=bottom;endArrow=block;edgeStyle=elbowEdgeStyle;elbow=vertical;curved=0;rounded=0;" edge="1" parent="1">
          <mxGeometry width="80" relative="1" as="geometry">
            <mxPoint x="590" y="1585" as="sourcePoint" />
            <mxPoint x="750" y="1585" as="targetPoint" />
          </mxGeometry>
        </mxCell>
        <mxCell id="YXFIWgO_1D10-z2LLMyA-139" value="" style="shape=umlLifeline;perimeter=lifelinePerimeter;whiteSpace=wrap;html=1;container=1;dropTarget=0;collapsible=0;recursiveResize=0;outlineConnect=0;portConstraint=eastwest;newEdgeStyle={&quot;edgeStyle&quot;:&quot;elbowEdgeStyle&quot;,&quot;elbow&quot;:&quot;vertical&quot;,&quot;curved&quot;:0,&quot;rounded&quot;:0};participant=umlActor;" vertex="1" parent="1">
          <mxGeometry x="210" y="1935" width="20" height="290" as="geometry" />
        </mxCell>
        <mxCell id="YXFIWgO_1D10-z2LLMyA-140" value="" style="html=1;points=[];perimeter=orthogonalPerimeter;outlineConnect=0;targetShapes=umlLifeline;portConstraint=eastwest;newEdgeStyle={&quot;edgeStyle&quot;:&quot;elbowEdgeStyle&quot;,&quot;elbow&quot;:&quot;vertical&quot;,&quot;curved&quot;:0,&quot;rounded&quot;:0};" vertex="1" parent="YXFIWgO_1D10-z2LLMyA-139">
          <mxGeometry x="5" y="90" width="10" height="160" as="geometry" />
        </mxCell>
        <mxCell id="YXFIWgO_1D10-z2LLMyA-141" value="Loan" style="shape=umlLifeline;perimeter=lifelinePerimeter;whiteSpace=wrap;html=1;container=1;dropTarget=0;collapsible=0;recursiveResize=0;outlineConnect=0;portConstraint=eastwest;newEdgeStyle={&quot;edgeStyle&quot;:&quot;elbowEdgeStyle&quot;,&quot;elbow&quot;:&quot;vertical&quot;,&quot;curved&quot;:0,&quot;rounded&quot;:0};" vertex="1" parent="1">
          <mxGeometry x="360" y="1935" width="100" height="300" as="geometry" />
        </mxCell>
        <mxCell id="YXFIWgO_1D10-z2LLMyA-142" value="" style="html=1;points=[];perimeter=orthogonalPerimeter;outlineConnect=0;targetShapes=umlLifeline;portConstraint=eastwest;newEdgeStyle={&quot;edgeStyle&quot;:&quot;elbowEdgeStyle&quot;,&quot;elbow&quot;:&quot;vertical&quot;,&quot;curved&quot;:0,&quot;rounded&quot;:0};" vertex="1" parent="YXFIWgO_1D10-z2LLMyA-141">
          <mxGeometry x="45" y="90" width="10" height="160" as="geometry" />
        </mxCell>
        <mxCell id="YXFIWgO_1D10-z2LLMyA-143" value="Approval" style="shape=umlLifeline;perimeter=lifelinePerimeter;whiteSpace=wrap;html=1;container=1;dropTarget=0;collapsible=0;recursiveResize=0;outlineConnect=0;portConstraint=eastwest;newEdgeStyle={&quot;edgeStyle&quot;:&quot;elbowEdgeStyle&quot;,&quot;elbow&quot;:&quot;vertical&quot;,&quot;curved&quot;:0,&quot;rounded&quot;:0};" vertex="1" parent="1">
          <mxGeometry x="520" y="1935" width="100" height="300" as="geometry" />
        </mxCell>
        <mxCell id="YXFIWgO_1D10-z2LLMyA-144" value="" style="html=1;points=[];perimeter=orthogonalPerimeter;outlineConnect=0;targetShapes=umlLifeline;portConstraint=eastwest;newEdgeStyle={&quot;edgeStyle&quot;:&quot;elbowEdgeStyle&quot;,&quot;elbow&quot;:&quot;vertical&quot;,&quot;curved&quot;:0,&quot;rounded&quot;:0};" vertex="1" parent="YXFIWgO_1D10-z2LLMyA-143">
          <mxGeometry x="45" y="90" width="10" height="160" as="geometry" />
        </mxCell>
        <mxCell id="YXFIWgO_1D10-z2LLMyA-145" value="DataBase" style="shape=umlLifeline;perimeter=lifelinePerimeter;whiteSpace=wrap;html=1;container=1;dropTarget=0;collapsible=0;recursiveResize=0;outlineConnect=0;portConstraint=eastwest;newEdgeStyle={&quot;edgeStyle&quot;:&quot;elbowEdgeStyle&quot;,&quot;elbow&quot;:&quot;vertical&quot;,&quot;curved&quot;:0,&quot;rounded&quot;:0};" vertex="1" parent="1">
          <mxGeometry x="700" y="1935" width="100" height="300" as="geometry" />
        </mxCell>
        <mxCell id="YXFIWgO_1D10-z2LLMyA-146" value="" style="html=1;points=[];perimeter=orthogonalPerimeter;outlineConnect=0;targetShapes=umlLifeline;portConstraint=eastwest;newEdgeStyle={&quot;edgeStyle&quot;:&quot;elbowEdgeStyle&quot;,&quot;elbow&quot;:&quot;vertical&quot;,&quot;curved&quot;:0,&quot;rounded&quot;:0};" vertex="1" parent="YXFIWgO_1D10-z2LLMyA-145">
          <mxGeometry x="45" y="90" width="10" height="160" as="geometry" />
        </mxCell>
        <mxCell id="YXFIWgO_1D10-z2LLMyA-147" value="Result" style="html=1;verticalAlign=bottom;endArrow=open;dashed=1;endSize=8;edgeStyle=elbowEdgeStyle;elbow=vertical;curved=0;rounded=0;" edge="1" parent="1" source="YXFIWgO_1D10-z2LLMyA-145">
          <mxGeometry relative="1" as="geometry">
            <mxPoint x="569.5" y="2155" as="sourcePoint" />
            <mxPoint x="230" y="2155" as="targetPoint" />
          </mxGeometry>
        </mxCell>
        <mxCell id="YXFIWgO_1D10-z2LLMyA-148" value="Send Request" style="html=1;verticalAlign=bottom;endArrow=block;edgeStyle=elbowEdgeStyle;elbow=vertical;curved=0;rounded=0;" edge="1" parent="1" target="YXFIWgO_1D10-z2LLMyA-141">
          <mxGeometry width="80" relative="1" as="geometry">
            <mxPoint x="230" y="2055" as="sourcePoint" />
            <mxPoint x="340.5" y="2055" as="targetPoint" />
          </mxGeometry>
        </mxCell>
        <mxCell id="YXFIWgO_1D10-z2LLMyA-149" value="Approval Request" style="html=1;verticalAlign=bottom;endArrow=block;edgeStyle=elbowEdgeStyle;elbow=vertical;curved=0;rounded=0;" edge="1" parent="1" target="YXFIWgO_1D10-z2LLMyA-144">
          <mxGeometry x="0.1065" y="5" width="80" relative="1" as="geometry">
            <mxPoint x="420" y="2079.5" as="sourcePoint" />
            <mxPoint x="600" y="2079.5" as="targetPoint" />
            <mxPoint x="1" as="offset" />
          </mxGeometry>
        </mxCell>
        <mxCell id="YXFIWgO_1D10-z2LLMyA-150" value="If Approved, ok" style="html=1;verticalAlign=bottom;endArrow=block;edgeStyle=elbowEdgeStyle;elbow=vertical;curved=0;rounded=0;exitX=0.5;exitY=0.188;exitDx=0;exitDy=0;exitPerimeter=0;" edge="1" parent="1" source="YXFIWgO_1D10-z2LLMyA-144">
          <mxGeometry width="80" relative="1" as="geometry">
            <mxPoint x="580" y="2055" as="sourcePoint" />
            <mxPoint x="740" y="2055" as="targetPoint" />
          </mxGeometry>
        </mxCell>
        <mxCell id="YXFIWgO_1D10-z2LLMyA-151" value="Reject Validate" style="html=1;verticalAlign=bottom;endArrow=open;dashed=1;endSize=8;edgeStyle=elbowEdgeStyle;elbow=vertical;curved=0;rounded=0;" edge="1" parent="1">
          <mxGeometry relative="1" as="geometry">
            <mxPoint x="560" y="2115" as="sourcePoint" />
            <mxPoint x="230.25" y="2115" as="targetPoint" />
          </mxGeometry>
        </mxCell>
        <mxCell id="YXFIWgO_1D10-z2LLMyA-152" value="" style="shape=umlLifeline;perimeter=lifelinePerimeter;whiteSpace=wrap;html=1;container=1;dropTarget=0;collapsible=0;recursiveResize=0;outlineConnect=0;portConstraint=eastwest;newEdgeStyle={&quot;edgeStyle&quot;:&quot;elbowEdgeStyle&quot;,&quot;elbow&quot;:&quot;vertical&quot;,&quot;curved&quot;:0,&quot;rounded&quot;:0};participant=umlActor;" vertex="1" parent="1">
          <mxGeometry x="210" y="2360" width="20" height="290" as="geometry" />
        </mxCell>
        <mxCell id="YXFIWgO_1D10-z2LLMyA-153" value="" style="html=1;points=[];perimeter=orthogonalPerimeter;outlineConnect=0;targetShapes=umlLifeline;portConstraint=eastwest;newEdgeStyle={&quot;edgeStyle&quot;:&quot;elbowEdgeStyle&quot;,&quot;elbow&quot;:&quot;vertical&quot;,&quot;curved&quot;:0,&quot;rounded&quot;:0};" vertex="1" parent="YXFIWgO_1D10-z2LLMyA-152">
          <mxGeometry x="5" y="90" width="10" height="160" as="geometry" />
        </mxCell>
        <mxCell id="YXFIWgO_1D10-z2LLMyA-154" value="Check Salary" style="shape=umlLifeline;perimeter=lifelinePerimeter;whiteSpace=wrap;html=1;container=1;dropTarget=0;collapsible=0;recursiveResize=0;outlineConnect=0;portConstraint=eastwest;newEdgeStyle={&quot;edgeStyle&quot;:&quot;elbowEdgeStyle&quot;,&quot;elbow&quot;:&quot;vertical&quot;,&quot;curved&quot;:0,&quot;rounded&quot;:0};" vertex="1" parent="1">
          <mxGeometry x="360" y="2360" width="100" height="300" as="geometry" />
        </mxCell>
        <mxCell id="YXFIWgO_1D10-z2LLMyA-155" value="" style="html=1;points=[];perimeter=orthogonalPerimeter;outlineConnect=0;targetShapes=umlLifeline;portConstraint=eastwest;newEdgeStyle={&quot;edgeStyle&quot;:&quot;elbowEdgeStyle&quot;,&quot;elbow&quot;:&quot;vertical&quot;,&quot;curved&quot;:0,&quot;rounded&quot;:0};" vertex="1" parent="YXFIWgO_1D10-z2LLMyA-154">
          <mxGeometry x="45" y="90" width="10" height="160" as="geometry" />
        </mxCell>
        <mxCell id="YXFIWgO_1D10-z2LLMyA-156" value="Balance Statement" style="shape=umlLifeline;perimeter=lifelinePerimeter;whiteSpace=wrap;html=1;container=1;dropTarget=0;collapsible=0;recursiveResize=0;outlineConnect=0;portConstraint=eastwest;newEdgeStyle={&quot;edgeStyle&quot;:&quot;elbowEdgeStyle&quot;,&quot;elbow&quot;:&quot;vertical&quot;,&quot;curved&quot;:0,&quot;rounded&quot;:0};" vertex="1" parent="1">
          <mxGeometry x="520" y="2360" width="100" height="300" as="geometry" />
        </mxCell>
        <mxCell id="YXFIWgO_1D10-z2LLMyA-157" value="" style="html=1;points=[];perimeter=orthogonalPerimeter;outlineConnect=0;targetShapes=umlLifeline;portConstraint=eastwest;newEdgeStyle={&quot;edgeStyle&quot;:&quot;elbowEdgeStyle&quot;,&quot;elbow&quot;:&quot;vertical&quot;,&quot;curved&quot;:0,&quot;rounded&quot;:0};" vertex="1" parent="YXFIWgO_1D10-z2LLMyA-156">
          <mxGeometry x="45" y="90" width="10" height="160" as="geometry" />
        </mxCell>
        <mxCell id="YXFIWgO_1D10-z2LLMyA-158" value="DataBase" style="shape=umlLifeline;perimeter=lifelinePerimeter;whiteSpace=wrap;html=1;container=1;dropTarget=0;collapsible=0;recursiveResize=0;outlineConnect=0;portConstraint=eastwest;newEdgeStyle={&quot;edgeStyle&quot;:&quot;elbowEdgeStyle&quot;,&quot;elbow&quot;:&quot;vertical&quot;,&quot;curved&quot;:0,&quot;rounded&quot;:0};" vertex="1" parent="1">
          <mxGeometry x="700" y="2360" width="100" height="300" as="geometry" />
        </mxCell>
        <mxCell id="YXFIWgO_1D10-z2LLMyA-159" value="" style="html=1;points=[];perimeter=orthogonalPerimeter;outlineConnect=0;targetShapes=umlLifeline;portConstraint=eastwest;newEdgeStyle={&quot;edgeStyle&quot;:&quot;elbowEdgeStyle&quot;,&quot;elbow&quot;:&quot;vertical&quot;,&quot;curved&quot;:0,&quot;rounded&quot;:0};" vertex="1" parent="YXFIWgO_1D10-z2LLMyA-158">
          <mxGeometry x="45" y="90" width="10" height="160" as="geometry" />
        </mxCell>
        <mxCell id="YXFIWgO_1D10-z2LLMyA-160" value="Result" style="html=1;verticalAlign=bottom;endArrow=open;dashed=1;endSize=8;edgeStyle=elbowEdgeStyle;elbow=vertical;curved=0;rounded=0;" edge="1" parent="1" source="YXFIWgO_1D10-z2LLMyA-158">
          <mxGeometry relative="1" as="geometry">
            <mxPoint x="569.5" y="2580" as="sourcePoint" />
            <mxPoint x="230" y="2580" as="targetPoint" />
          </mxGeometry>
        </mxCell>
        <mxCell id="YXFIWgO_1D10-z2LLMyA-161" value="Send Request" style="html=1;verticalAlign=bottom;endArrow=block;edgeStyle=elbowEdgeStyle;elbow=vertical;curved=0;rounded=0;" edge="1" parent="1" target="YXFIWgO_1D10-z2LLMyA-154">
          <mxGeometry width="80" relative="1" as="geometry">
            <mxPoint x="230" y="2480" as="sourcePoint" />
            <mxPoint x="340.5" y="2480" as="targetPoint" />
          </mxGeometry>
        </mxCell>
        <mxCell id="YXFIWgO_1D10-z2LLMyA-162" value="Current Balance Request" style="html=1;verticalAlign=bottom;endArrow=block;edgeStyle=elbowEdgeStyle;elbow=vertical;curved=0;rounded=0;" edge="1" parent="1" target="YXFIWgO_1D10-z2LLMyA-157">
          <mxGeometry x="0.1065" y="5" width="80" relative="1" as="geometry">
            <mxPoint x="420" y="2504.5" as="sourcePoint" />
            <mxPoint x="600" y="2504.5" as="targetPoint" />
            <mxPoint x="1" as="offset" />
          </mxGeometry>
        </mxCell>
        <mxCell id="YXFIWgO_1D10-z2LLMyA-163" value="Request Balance" style="html=1;verticalAlign=bottom;endArrow=block;edgeStyle=elbowEdgeStyle;elbow=vertical;curved=0;rounded=0;exitX=0.5;exitY=0.188;exitDx=0;exitDy=0;exitPerimeter=0;" edge="1" parent="1" source="YXFIWgO_1D10-z2LLMyA-157">
          <mxGeometry width="80" relative="1" as="geometry">
            <mxPoint x="580" y="2480" as="sourcePoint" />
            <mxPoint x="740" y="2480" as="targetPoint" />
          </mxGeometry>
        </mxCell>
        <mxCell id="a556wdsPq3K788G9VgvO-1" value="" style="ellipse;html=1;shape=startState;fillColor=#000000;strokeColor=#ff0000;" vertex="1" parent="1">
          <mxGeometry x="280" y="2995" width="30" height="30" as="geometry" />
        </mxCell>
        <mxCell id="a556wdsPq3K788G9VgvO-2" value="" style="edgeStyle=orthogonalEdgeStyle;html=1;verticalAlign=bottom;endArrow=open;endSize=8;strokeColor=#ff0000;rounded=0;entryX=0;entryY=0.5;entryDx=0;entryDy=0;" edge="1" parent="1">
          <mxGeometry relative="1" as="geometry">
            <mxPoint x="425" y="3009.5" as="targetPoint" />
            <mxPoint x="310" y="3009.5" as="sourcePoint" />
          </mxGeometry>
        </mxCell>
        <mxCell id="a556wdsPq3K788G9VgvO-20" value="Current Account" style="rounded=1;whiteSpace=wrap;html=1;arcSize=40;fontColor=#000000;fillColor=#ffffc0;strokeColor=#ff0000;" vertex="1" parent="1">
          <mxGeometry x="425" y="2990" width="120" height="40" as="geometry" />
        </mxCell>
        <mxCell id="a556wdsPq3K788G9VgvO-27" value="" style="edgeStyle=orthogonalEdgeStyle;html=1;verticalAlign=bottom;endArrow=open;endSize=8;strokeColor=#ff0000;rounded=0;exitX=1;exitY=0.5;exitDx=0;exitDy=0;" edge="1" parent="1" target="a556wdsPq3K788G9VgvO-28">
          <mxGeometry relative="1" as="geometry">
            <mxPoint x="640" y="3010" as="targetPoint" />
            <mxPoint x="605" y="3009.5" as="sourcePoint" />
            <Array as="points">
              <mxPoint x="545" y="3009.5" />
            </Array>
          </mxGeometry>
        </mxCell>
        <mxCell id="a556wdsPq3K788G9VgvO-28" value="Validate Details" style="rounded=1;whiteSpace=wrap;html=1;arcSize=40;fontColor=#000000;fillColor=#ffffc0;strokeColor=#ff0000;" vertex="1" parent="1">
          <mxGeometry x="630" y="2990" width="120" height="40" as="geometry" />
        </mxCell>
        <mxCell id="a556wdsPq3K788G9VgvO-31" value="" style="edgeStyle=orthogonalEdgeStyle;html=1;verticalAlign=bottom;endArrow=open;endSize=8;strokeColor=#ff0000;rounded=0;exitX=1;exitY=0.5;exitDx=0;exitDy=0;" edge="1" parent="1">
          <mxGeometry relative="1" as="geometry">
            <mxPoint x="835" y="3010" as="targetPoint" />
            <mxPoint x="810" y="3009.5" as="sourcePoint" />
            <Array as="points">
              <mxPoint x="750" y="3009.5" />
            </Array>
          </mxGeometry>
        </mxCell>
        <mxCell id="a556wdsPq3K788G9VgvO-32" value="Is Valid?" style="rhombus;whiteSpace=wrap;html=1;fontColor=#000000;fillColor=#ffffc0;strokeColor=#ff0000;" vertex="1" parent="1">
          <mxGeometry x="840" y="2975" width="100" height="70" as="geometry" />
        </mxCell>
        <mxCell id="a556wdsPq3K788G9VgvO-33" value="" style="edgeStyle=orthogonalEdgeStyle;html=1;align=left;verticalAlign=bottom;endArrow=open;endSize=8;strokeColor=#ff0000;rounded=0;" edge="1" parent="1" source="a556wdsPq3K788G9VgvO-32">
          <mxGeometry x="-1" relative="1" as="geometry">
            <mxPoint x="1010" y="3010" as="targetPoint" />
          </mxGeometry>
        </mxCell>
        <mxCell id="a556wdsPq3K788G9VgvO-34" value="" style="edgeStyle=orthogonalEdgeStyle;html=1;align=left;verticalAlign=top;endArrow=open;endSize=8;strokeColor=#ff0000;rounded=0;" edge="1" parent="1">
          <mxGeometry x="-1" relative="1" as="geometry">
            <mxPoint x="889.5" y="3085" as="targetPoint" />
            <mxPoint x="889.5" y="3045" as="sourcePoint" />
          </mxGeometry>
        </mxCell>
        <mxCell id="a556wdsPq3K788G9VgvO-35" value="Convey Message" style="rounded=1;whiteSpace=wrap;html=1;arcSize=40;fontColor=#000000;fillColor=#ffffc0;strokeColor=#ff0000;" vertex="1" parent="1">
          <mxGeometry x="1215" y="2990" width="120" height="40" as="geometry" />
        </mxCell>
        <mxCell id="a556wdsPq3K788G9VgvO-36" value="Reject Details" style="rounded=1;whiteSpace=wrap;html=1;arcSize=40;fontColor=#000000;fillColor=#ffffc0;strokeColor=#ff0000;" vertex="1" parent="1">
          <mxGeometry x="1010" y="2990" width="120" height="40" as="geometry" />
        </mxCell>
        <mxCell id="a556wdsPq3K788G9VgvO-37" value="" style="edgeStyle=orthogonalEdgeStyle;html=1;verticalAlign=bottom;endArrow=open;endSize=8;strokeColor=#ff0000;rounded=0;exitX=1;exitY=0.5;exitDx=0;exitDy=0;" edge="1" parent="1">
          <mxGeometry relative="1" as="geometry">
            <mxPoint x="1215" y="3010" as="targetPoint" />
            <mxPoint x="1190" y="3009.5" as="sourcePoint" />
            <Array as="points">
              <mxPoint x="1130" y="3009.5" />
            </Array>
          </mxGeometry>
        </mxCell>
        <mxCell id="a556wdsPq3K788G9VgvO-40" value="Create Account Details" style="rounded=1;whiteSpace=wrap;html=1;arcSize=40;fontColor=#000000;fillColor=#ffffc0;strokeColor=#ff0000;" vertex="1" parent="1">
          <mxGeometry x="830" y="3090" width="120" height="40" as="geometry" />
        </mxCell>
        <mxCell id="a556wdsPq3K788G9VgvO-42" value="Confirm User" style="rounded=1;whiteSpace=wrap;html=1;arcSize=40;fontColor=#000000;fillColor=#ffffc0;strokeColor=#ff0000;" vertex="1" parent="1">
          <mxGeometry x="1030" y="3090" width="120" height="40" as="geometry" />
        </mxCell>
        <mxCell id="a556wdsPq3K788G9VgvO-45" value="" style="ellipse;html=1;shape=endState;fillColor=#000000;strokeColor=#ff0000;" vertex="1" parent="1">
          <mxGeometry x="1420" y="2995" width="30" height="30" as="geometry" />
        </mxCell>
        <mxCell id="a556wdsPq3K788G9VgvO-46" value="" style="edgeStyle=orthogonalEdgeStyle;html=1;verticalAlign=bottom;endArrow=open;endSize=8;strokeColor=#ff0000;rounded=0;exitX=1;exitY=0.5;exitDx=0;exitDy=0;" edge="1" parent="1">
          <mxGeometry relative="1" as="geometry">
            <mxPoint x="1420" y="3010" as="targetPoint" />
            <mxPoint x="1395" y="3009.5" as="sourcePoint" />
            <Array as="points">
              <mxPoint x="1335" y="3009.5" />
            </Array>
          </mxGeometry>
        </mxCell>
        <mxCell id="a556wdsPq3K788G9VgvO-47" value="" style="edgeStyle=orthogonalEdgeStyle;html=1;verticalAlign=bottom;endArrow=open;endSize=8;strokeColor=#ff0000;rounded=0;exitX=1;exitY=0.5;exitDx=0;exitDy=0;entryX=0;entryY=0.5;entryDx=0;entryDy=0;" edge="1" parent="1" source="a556wdsPq3K788G9VgvO-40" target="a556wdsPq3K788G9VgvO-42">
          <mxGeometry relative="1" as="geometry">
            <mxPoint x="900" y="3200" as="targetPoint" />
            <mxPoint x="900" y="3140" as="sourcePoint" />
          </mxGeometry>
        </mxCell>
        <mxCell id="a556wdsPq3K788G9VgvO-50" value="" style="edgeStyle=orthogonalEdgeStyle;html=1;verticalAlign=bottom;endArrow=open;endSize=8;strokeColor=#ff0000;rounded=0;exitX=1;exitY=0.5;exitDx=0;exitDy=0;" edge="1" parent="1" source="a556wdsPq3K788G9VgvO-42" target="a556wdsPq3K788G9VgvO-44">
          <mxGeometry relative="1" as="geometry">
            <mxPoint x="1230" y="3110" as="targetPoint" />
            <mxPoint x="1150" y="3110" as="sourcePoint" />
          </mxGeometry>
        </mxCell>
        <mxCell id="a556wdsPq3K788G9VgvO-44" value="" style="ellipse;html=1;shape=endState;fillColor=#000000;strokeColor=#ff0000;" vertex="1" parent="1">
          <mxGeometry x="1230" y="3095" width="30" height="30" as="geometry" />
        </mxCell>
      </root>
    </mxGraphModel>
  </diagram>
</mxfile>
